<?xml version="1.0" encoding="UTF-8"?>
<svg version="1.1" xmlns="http://www.w3.org/2000/svg" width="359" height="289">
<path d="M0 0 C0.23231591 7.70135134 0.40968539 15.40233725 0.51812172 23.10640049 C0.57018722 26.68458366 0.64070884 30.2603604 0.75439453 33.8371582 C0.86355076 37.29332257 0.92293618 40.74718327 0.94877243 44.20493889 C0.97608199 46.15705899 1.05407906 48.10825851 1.13296509 50.05897522 C1.13844342 58.76787293 1.13844342 58.76787293 -2.13609314 62.31187439 C-4.68591246 64.11906414 -7.21862737 65.58153029 -10 67 C-11.49301471 67.92445119 -12.98009323 68.858669 -14.45703125 69.80859375 C-15.90691466 70.68810113 -17.3587735 71.56435946 -18.8125 72.4375 C-20.40109144 73.4009596 -21.98963294 74.36450156 -23.578125 75.328125 C-25.051982 76.21891769 -26.52593077 77.10955855 -28 78 C-36.48273103 83.13978284 -44.84237626 88.45287609 -53.1875 93.8125 C-62.72629122 99.93755696 -72.32847909 105.93507326 -82.02929688 111.79931641 C-84.00274063 113.00166978 -85.96393582 114.22180228 -87.921875 115.44921875 C-88.5293457 115.82884766 -89.13681641 116.20847656 -89.76269531 116.59960938 C-91.3748381 117.60912431 -92.98440477 118.62274997 -94.59375 119.63671875 C-97 121 -97 121 -99 121 C-99.37251575 113.35170672 -99.65586315 105.70436167 -99.82899475 98.04903603 C-99.91215948 94.49246313 -100.02460617 90.94213501 -100.20703125 87.38916016 C-101.35048848 64.52278859 -101.35048848 64.52278859 -97.52597046 58.790802 C-93.85543174 55.32784657 -89.65199724 53.43145765 -84.94622803 51.73608398 C-82.39377747 50.77072024 -80.2640364 49.39489633 -78.01953125 47.85546875 C-77.32190674 47.41315918 -76.62428223 46.97084961 -75.90551758 46.51513672 C-75.21482178 46.0770166 -74.52412598 45.63889648 -73.8125 45.1875 C-65.2389106 39.76072788 -56.61569425 34.41633343 -47.984375 29.08203125 C-0.93070401 0 -0.93070401 0 0 0 Z " fill="#FEFEFE" transform="translate(229,1)"/>
<path d="M0 0 C20.13 0 40.26 0 61 0 C61 20.13 61 40.26 61 61 C40.87 61 20.74 61 0 61 C0 40.87 0 20.74 0 0 Z " fill="#FEFEFE" transform="translate(68,62)"/>
<path d="M0 0 C20.13 0 40.26 0 61 0 C61 20.13 61 40.26 61 61 C40.87 61 20.74 61 0 61 C0 40.87 0 20.74 0 0 Z " fill="#FEFEFE" transform="translate(230,0)"/>
<path d="M0 0 C4.62 0 9.24 0 14 0 C19.52680616 10.33717448 24.92392315 20.72410785 30.12304688 31.22998047 C31.40807066 33.82363928 32.70406881 36.41177787 34 39 C34.66666667 40.33333333 35.33333333 41.66666667 36 43 C38.56087028 39.82325457 40.34464415 36.52776954 42.14453125 32.87109375 C42.43680099 32.28135269 42.72907074 31.69161163 43.03019714 31.08399963 C43.96148679 29.20370909 44.88738989 27.32083757 45.8125 25.4375 C47.02449599 22.97644885 48.23918953 20.51675751 49.45703125 18.05859375 C49.90020187 17.16386856 49.90020187 17.16386856 50.35232544 16.25106812 C53.09239509 10.75238621 56.01982943 5.37160913 59 0 C63.62 0 68.24 0 73 0 C73 22.44 73 44.88 73 68 C69.37 68 65.74 68 62 68 C61.97494385 66.99211426 61.9498877 65.98422852 61.92407227 64.94580078 C61.82902242 61.16233258 61.72905096 57.37900694 61.62768555 53.59570312 C61.58470178 51.96650557 61.54300576 50.33727346 61.50268555 48.70800781 C61.28865961 40.09412459 61.02937545 31.56371169 60 23 C53.15141024 35.4216542 47.04550346 48.17169577 41 61 C38.03 61 35.06 61 32 61 C31.5153125 60.01902344 31.030625 59.03804687 30.53125 58.02734375 C26.43901661 49.77693967 22.23644141 41.60299898 17.859375 33.5 C15.84096356 29.70063729 13.9240136 25.8480272 12 22 C11.67 37.18 11.34 52.36 11 68 C7.37 68 3.74 68 0 68 C0 45.56 0 23.12 0 0 Z " fill="#AAAAAA" transform="translate(0,144)"/>
<path d="M0 0 C1.77149666 0.00022659 1.77149666 0.00022659 3.57878113 0.00045776 C5.49138481 0.01594162 5.49138481 0.01594162 7.44262695 0.03173828 C9.40060966 0.03598312 9.40060966 0.03598312 11.39814758 0.04031372 C14.86536335 0.04794331 18.33241108 0.06758585 21.79956055 0.08972168 C25.33876268 0.11019473 28.87799202 0.11931855 32.41723633 0.12939453 C39.35936257 0.15083248 46.30137731 0.18496022 53.2434082 0.22705078 C53.2434082 0.88705078 53.2434082 1.54705078 53.2434082 2.22705078 C52.24374023 2.75492188 52.24374023 2.75492188 51.22387695 3.29345703 C45.51391397 6.35208056 39.98721558 9.57851732 34.5480957 13.09423828 C30.17322856 15.9177341 25.77099429 18.69704147 21.3684082 21.47705078 C20.54727539 21.9967041 19.72614258 22.51635742 18.88012695 23.05175781 C18.09508789 23.54788574 17.31004883 24.04401367 16.5012207 24.55517578 C15.451521 25.21888184 15.451521 25.21888184 14.38061523 25.89599609 C13.32269775 26.55486816 13.32269775 26.55486816 12.2434082 27.22705078 C11.49774094 27.7424794 10.75207367 28.25790802 9.98381042 28.78895569 C6.79910047 30.46021246 4.83742633 30.59060978 1.25976562 30.56762695 C0.07891891 30.56740036 -1.1019278 30.56717377 -2.31855774 30.56694031 C-4.21567757 30.54371452 -4.21567757 30.54371452 -6.15112305 30.52001953 C-7.45361496 30.51577469 -8.75610687 30.51152985 -10.09806824 30.50715637 C-13.54891447 30.49574091 -16.99937762 30.46630295 -20.45007324 30.43304443 C-23.97602152 30.40227186 -27.50203211 30.38863575 -31.02807617 30.37353516 C-37.93773803 30.34142946 -44.84714649 30.29027359 -51.7565918 30.22705078 C-49.6391686 28.06055486 -47.61817286 26.3744983 -45.0456543 24.76611328 C-44.30508789 24.30060059 -43.56452148 23.83508789 -42.80151367 23.35546875 C-42.00293945 22.85934082 -41.20436523 22.36321289 -40.3815918 21.85205078 C-39.5546582 21.33400879 -38.72772461 20.8159668 -37.87573242 20.28222656 C-30.44256656 15.63302316 -22.9867447 11.01961247 -15.5246582 6.41699219 C-14.68338379 5.8979834 -13.84210938 5.37897461 -12.9753418 4.84423828 C-12.23219727 4.38645996 -11.48905273 3.92868164 -10.72338867 3.45703125 C-6.6586704 0.91506866 -4.83247536 -0.02060757 0 0 Z " fill="#FDFDFD" transform="translate(122.756591796875,30.77294921875)"/>
<path d="M0 0 C2.68916332 0.07862622 5.37864504 0.13524963 8.06835938 0.19140625 C14.5704479 0.34357457 21.06559008 0.57601653 27.5625 0.875 C24.67141432 3.88752011 21.98345457 6.47146824 18.3671875 8.56640625 C17.57747559 9.03071045 16.78776367 9.49501465 15.97412109 9.97338867 C14.71849365 10.69812378 14.71849365 10.69812378 13.4375 11.4375 C11.65507592 12.48498388 9.87385785 13.5345222 8.09375 14.5859375 C7.18367188 15.1231543 6.27359375 15.66037109 5.3359375 16.21386719 C-0.01295651 19.41755335 -5.26291981 22.77778849 -10.52001953 26.12915039 C-11.26880371 26.60602295 -12.01758789 27.08289551 -12.7890625 27.57421875 C-13.44729004 27.99533936 -14.10551758 28.41645996 -14.78369141 28.8503418 C-18.09182089 30.89997561 -20.18218528 30.99681982 -24.08056641 30.98852539 C-25.26163971 30.98844986 -26.44271301 30.98837433 -27.65957642 30.98829651 C-28.93980682 30.98313522 -30.22003723 30.97797394 -31.5390625 30.97265625 C-32.84579926 30.9712413 -34.15253601 30.96982635 -35.49887085 30.96836853 C-38.97426258 30.96454894 -42.44961257 30.95472342 -45.92498779 30.94366455 C-49.47081945 30.93343843 -53.01665785 30.92886833 -56.5625 30.92382812 C-63.52085049 30.91310066 -70.47917324 30.89603092 -77.4375 30.875 C-74.56027542 28.55628919 -71.72915328 26.32156476 -68.6015625 24.3515625 C-67.91584671 23.91902161 -67.23013092 23.48648071 -66.52363586 23.04083252 C-64.90665847 22.02849859 -63.28415393 21.02492993 -61.65577698 20.03103638 C-57.11067275 17.24523339 -52.71327359 14.38372211 -48.4387207 11.19628906 C-32.52899633 -0.21647818 -19.12863852 -0.88350139 0 0 Z " fill="#FDFDFD" transform="translate(260.4375,61.125)"/>
<path d="M0 0 C3.96 0 7.92 0 12 0 C12.33 8.58 12.66 17.16 13 26 C15.64 24.35 18.28 22.7 21 21 C28.47250727 19.13187318 35.16130829 19.11133217 42 23 C46.88210174 26.77253317 48.82268491 31.06281814 50 37 C50.48208353 43.0044969 50.28361792 49.04575986 50.1875 55.0625 C50.17242751 56.70767006 50.15874364 58.35285345 50.14648438 59.99804688 C50.11367782 63.99903141 50.06203766 67.99936631 50 72 C46.04 72 42.08 72 38 72 C37.98541748 71.0620459 37.97083496 70.1240918 37.95581055 69.15771484 C37.89453283 65.65730621 37.82034068 62.15765551 37.73754883 58.65771484 C37.70442074 57.14675096 37.67635145 55.63566693 37.65356445 54.12451172 C37.61979319 51.94446918 37.56747104 49.76551561 37.51171875 47.5859375 C37.48553467 46.2767334 37.45935059 44.9675293 37.43237305 43.61865234 C36.96935774 39.74354623 36.05950336 37.2977566 34 34 C29.73755081 31.1583672 26.00032912 31.49596683 21 32 C17.44361321 33.36202047 16.35880046 34.40307804 14.40307617 37.65673828 C12.81324722 41.44499609 12.5729406 44.26967483 12.48828125 48.3671875 C12.47033005 49.04677521 12.45237885 49.72636292 12.43388367 50.42654419 C12.38013183 52.57596819 12.34600064 54.72517477 12.3125 56.875 C12.27929562 58.34117587 12.2448031 59.80732317 12.20898438 61.2734375 C12.12442802 64.84874948 12.05744994 68.42413792 12 72 C8.04 72 4.08 72 0 72 C0 48.24 0 24.48 0 0 Z " fill="#AAAAAA" transform="translate(171,140)"/>
<path d="M0 0 C4.83550355 4.80489909 6.91327095 9.05829974 7.11352539 15.85058594 C7.11336783 17.39519134 7.10776419 18.93980266 7.09765625 20.484375 C7.0962413 21.29996887 7.09482635 22.11556274 7.09336853 22.95587158 C7.08778303 25.55395212 7.07523321 28.15194563 7.0625 30.75 C7.05748312 32.51432167 7.05292054 34.27864469 7.04882812 36.04296875 C7.03781835 40.36201256 7.02056369 44.68099154 7 49 C3.04 49 -0.92 49 -5 49 C-5.495 47.02 -5.495 47.02 -6 45 C-6.495 45.45375 -6.99 45.9075 -7.5 46.375 C-12.68465834 49.74502792 -18.93093911 50.62783389 -25 50 C-28.4179339 48.84563172 -31.71210218 47.48186944 -35 46 C-35 45.34 -35 44.68 -35 44 C-35.66 44 -36.32 44 -37 44 C-39.40668303 39.08635548 -40.60981144 35.58993818 -40 30 C-37.94188482 24.47558557 -34.9928454 21.40762399 -29.66723633 18.90283203 C-26.82761903 17.94165082 -24.6865364 17.76974811 -21.69921875 17.8046875 C-20.72275391 17.81113281 -19.74628906 17.81757813 -18.74023438 17.82421875 C-17.73283203 17.84097656 -16.72542969 17.85773438 -15.6875 17.875 C-14.66076172 17.88402344 -13.63402344 17.89304688 -12.57617188 17.90234375 C-10.05054101 17.92583799 -7.5253919 17.95868869 -5 18 C-6.1088016 13.21273278 -6.1088016 13.21273278 -8.625 9.125 C-13.27004341 6.92471628 -16.97022061 6.40659455 -21.859375 7.8359375 C-23.78026202 8.55245885 -25.68916907 9.30226358 -27.58203125 10.08984375 C-30 11 -30 11 -33 11 C-37 5.74285714 -37 5.74285714 -37 3 C-35.27398621 2.18082358 -33.5440353 1.36993984 -31.8125 0.5625 C-30.84957031 0.11003906 -29.88664063 -0.34242188 -28.89453125 -0.80859375 C-20.30992698 -4.34206784 -8.17734307 -4.89670939 0 0 Z M-28 29 C-28.53073253 33.07210885 -28.53073253 33.07210885 -28 37 C-25.91967333 39.08976126 -24.54766538 39.9078187 -21.6328125 40.3984375 C-15.35141636 40.33973286 -10.83272739 39.73830314 -6.125 35.1875 C-4.67137115 32.36099945 -4.92292296 30.13874824 -5 27 C-8.27075883 26.9419524 -11.54138524 26.90638835 -14.8125 26.875 C-16.2056543 26.84986328 -16.2056543 26.84986328 -17.62695312 26.82421875 C-18.51962891 26.81777344 -19.41230469 26.81132812 -20.33203125 26.8046875 C-21.15421143 26.79421387 -21.9763916 26.78374023 -22.82348633 26.77294922 C-25.29421592 26.86003865 -25.29421592 26.86003865 -28 29 Z " fill="#A9A9A9" transform="translate(270,163)"/>
<path d="M0 0 C6.66627846 5.17479592 8.92698984 11.82468452 10 20 C10 22.64 10 25.28 10 28 C-2.87 28 -15.74 28 -29 28 C-24.75283862 35.80004527 -24.75283862 35.80004527 -18 39 C-11.81681865 39.79126635 -7.53041559 38.71098803 -2 36 C-0.67723944 35.62691369 0.65232077 35.26953585 2 35 C3.65 36.98 5.3 38.96 7 41 C0.5892738 47.55642452 -6.04770702 49.89203822 -15.23046875 50.05859375 C-23.55127411 49.57278275 -30.26953174 47.34499569 -36 41 C-41.67140822 33.3041521 -42.07121415 25.294058 -41 16 C-39.32997474 8.79088473 -35.11717876 4.01643943 -29 0 C-20.26523938 -4.49536215 -8.67558191 -4.82886163 0 0 Z M-26.375 11.375 C-28.34640476 14.21803318 -28.34640476 14.21803318 -29 19 C-19.76 19 -10.52 19 -1 19 C-2.98928926 10.59825796 -2.98928926 10.59825796 -6.1875 8 C-14.03918829 5.20828861 -20.15984196 5.15984196 -26.375 11.375 Z " fill="#AAAAAA" transform="translate(327,163)"/>
<path d="M0 0 C0.804375 0.598125 1.60875 1.19625 2.4375 1.8125 C2.26124165 4.19198772 1.74030227 5.51475849 0.03515625 7.19140625 C-1.46899092 8.43365486 -3.01379851 9.62626056 -4.5625 10.8125 C-5.47 10.173125 -6.3775 9.53375 -7.3125 8.875 C-12.20675282 5.76903186 -15.74709654 5.41143769 -21.5625 5.8125 C-25.22172784 7.29026509 -28.02993916 8.78184548 -30.5625 11.8125 C-32.86655661 18.1402262 -32.99356293 23.57629509 -30.5625 29.8125 C-27.67556638 33.40166072 -25.09327879 35.80566027 -20.5625 36.8125 C-14.06638932 36.89969612 -9.61061729 35.93070095 -4.5625 31.8125 C-1.60840299 33.18404504 0.87758376 34.80113724 3.4375 36.8125 C1.20446748 42.31746253 -3.27264713 44.56223536 -8.5625 46.8125 C-16.66417076 48.50524039 -25.35921579 48.77771097 -32.71484375 44.5859375 C-39.42825358 39.91030384 -43.33914165 35.14743312 -45 27.0625 C-45.9656971 19.72320207 -45.26166334 13.21082668 -41.9375 6.5625 C-30.80512395 -6.32761963 -14.78521446 -9.6844878 0 0 Z " fill="#ABABAB" transform="translate(156.5625,165.1875)"/>
<path d="M0 0 C3.96 0 7.92 0 12 0 C12 23.76 12 47.52 12 72 C8.04 72 4.08 72 0 72 C0 48.24 0 24.48 0 0 Z " fill="#ABABAB" transform="translate(347,140)"/>
<path d="M0 0 C2.475 0.495 2.475 0.495 5 1 C7.64 12.22 10.28 23.44 13 35 C15.99933885 19.57539408 15.99933885 19.57539408 18.60546875 4.08203125 C19 2 19 2 20 0 C21.98 0 23.96 0 26 0 C27.98 11.22 29.96 22.44 32 34 C33.56856803 30.07857993 34.59681476 26.75471738 35.47265625 22.67578125 C35.73240234 21.48275391 35.99214844 20.28972656 36.25976562 19.06054688 C36.52466797 17.82369141 36.78957031 16.58683594 37.0625 15.3125 C37.59268429 12.84974948 38.12511989 10.3874822 38.66015625 7.92578125 C38.89355713 6.83692627 39.12695801 5.74807129 39.36743164 4.6262207 C40 2 40 2 41 0 C42.32 0 43.64 0 45 0 C44.42067819 5.94865484 43.54746261 11.64897418 42.1875 17.46484375 C42.01371826 18.22422745 41.83993652 18.98361115 41.66088867 19.76600647 C41.2968272 21.35212398 40.93035042 22.93768894 40.56152344 24.52270508 C39.99603132 26.95456706 39.43885686 29.38822786 38.8828125 31.82226562 C38.52652313 33.36990259 38.16976925 34.9174327 37.8125 36.46484375 C37.64580811 37.19186996 37.47911621 37.91889618 37.30737305 38.66795349 C36.11608517 43.76782966 36.11608517 43.76782966 35 46 C33.02 46 31.04 46 29 46 C26.89628904 39.47091509 25.91397857 32.83125299 24.875 26.0625 C24.69324219 24.90169922 24.51148437 23.74089844 24.32421875 22.54492188 C23.87889605 19.69720041 23.43760868 16.84891529 23 14 C20.81675452 24.63751519 18.84675281 35.29931175 17 46 C14.69 46 12.38 46 10 46 C8.57007062 40.09317471 7.14606828 34.18496406 5.72753906 28.27539062 C5.24414089 26.26523284 4.75912552 24.25546323 4.27246094 22.24609375 C3.57321433 19.35777715 2.87979579 16.46811441 2.1875 13.578125 C1.96876221 12.68007141 1.75002441 11.78201782 1.5246582 10.85675049 C1.22434692 9.5958963 1.22434692 9.5958963 0.91796875 8.30957031 C0.74031982 7.57232727 0.5626709 6.83508423 0.37963867 6.07550049 C0 4 0 4 0 0 Z " fill="#FAFBFB" transform="translate(0,229)"/>
<path d="M0 0 C3.63 0 7.26 0 11 0 C11 17.16 11 34.32 11 52 C7.04 52 3.08 52 -1 52 C-1.02464113 44.75512951 -1.0428318 37.51028318 -1.05493164 30.26538086 C-1.05997356 27.79857967 -1.06680691 25.33178148 -1.07543945 22.86499023 C-1.08751125 19.32795471 -1.09322956 15.79095855 -1.09765625 12.25390625 C-1.10281754 11.14350479 -1.10797882 10.03310333 -1.11329651 8.88905334 C-1.11337204 7.86807053 -1.11344757 6.84708771 -1.11352539 5.79516602 C-1.115746 4.89137711 -1.11796661 3.9875882 -1.12025452 3.05641174 C-1 1 -1 1 0 0 Z " fill="#A8A8A8" transform="translate(90,160)"/>
<path d="M0 0 C18 0 18 0 25 4 C29.34404752 9.2761441 28.4869933 15.39908657 28.44604492 21.91992188 C28.43752261 23.99449535 28.46634248 26.06632225 28.49804688 28.140625 C28.49740234 29.45546875 28.49675781 30.7703125 28.49609375 32.125 C28.49887329 33.92324219 28.49887329 33.92324219 28.50170898 35.7578125 C27.89525698 39.67687948 26.84123892 41.26608664 24 44 C19 46 19 46 0 46 C0 30.82 0 15.64 0 0 Z M5 4 C5 16.54 5 29.08 5 42 C17.11392398 43.1147408 17.11392398 43.1147408 23 39 C24.60878557 34.1736433 24.22614456 29.24187181 24.25 24.1875 C24.270625 23.10662109 24.29125 22.02574219 24.3125 20.91210938 C24.40012025 13.00175596 24.40012025 13.00175596 21 6 C15.95650161 3.10557281 15.95650161 3.10557281 5 4 Z " fill="#FAFAFA" transform="translate(122,229)"/>
<path d="M0 0 C1.65 0 3.3 0 5 0 C5.33 4.29 5.66 8.58 6 13 C7.340625 12.773125 8.68125 12.54625 10.0625 12.3125 C15.03474462 11.77220885 17.70802992 12.42481795 22 15 C25.68857958 19.48330867 25.48439154 23.90003505 25.4375 29.4375 C25.4674707 30.68756836 25.4674707 30.68756836 25.49804688 31.96289062 C25.49370994 37.44911021 24.69859577 40.6849716 21 45 C14.80431863 48.32451196 6.63725812 47.65931453 0 46 C0 30.82 0 15.64 0 0 Z M5 18 C5 25.92 5 33.84 5 42 C7.55615166 43.27807583 9.10354243 42.99968789 11.9375 42.75 C12.81277344 42.68296875 13.68804687 42.6159375 14.58984375 42.546875 C17.42394879 41.90380416 18.22571918 41.26347673 20 39 C20.45947403 36.81621034 20.45947403 36.81621034 20.3984375 34.40234375 C20.40230469 33.51869141 20.40617187 32.63503906 20.41015625 31.72460938 C20.39855469 30.80486328 20.38695312 29.88511719 20.375 28.9375 C20.38660156 28.01388672 20.39820313 27.09027344 20.41015625 26.13867188 C20.40628906 25.25630859 20.40242188 24.37394531 20.3984375 23.46484375 C20.39505371 22.656521 20.39166992 21.84819824 20.38818359 21.01538086 C20.26008301 20.35030518 20.13198242 19.68522949 20 19 C16.72872414 16.81914943 15.72623277 16.75112141 11.9375 16.8125 C11.05964844 16.81894531 10.18179688 16.82539063 9.27734375 16.83203125 C6.96874009 16.85720868 6.96874009 16.85720868 5 18 Z " fill="#FCFCFC" transform="translate(73,229)"/>
<path d="M0 0 C3.46309567 2.06740841 5.6957012 4.08710359 7 8 C7.27353832 10.93270806 7.27719904 13.8683996 7.3125 16.8125 C7.34150391 17.60720703 7.37050781 18.40191406 7.40039062 19.22070312 C7.4586838 24.64196834 6.62266415 27.71017855 3 32 C-1.1735653 34.55051213 -5.24777494 34.30659516 -10 34 C-10.99 33.34 -11.98 32.68 -13 32 C-13.02578125 32.91523438 -13.0515625 33.83046875 -13.078125 34.7734375 C-13.13484375 35.96195312 -13.1915625 37.15046875 -13.25 38.375 C-13.29640625 39.55835938 -13.3428125 40.74171875 -13.390625 41.9609375 C-13.59171875 42.96382813 -13.7928125 43.96671875 -14 45 C-15.32 45.66 -16.64 46.32 -18 47 C-18 31.49 -18 15.98 -18 0 C-15.525 0.495 -15.525 0.495 -13 1 C-11.8553125 0.505 -11.8553125 0.505 -10.6875 0 C-6.95842692 -1.38756208 -3.73899251 -1.146527 0 0 Z M-13 7 C-14.17435664 10.52306992 -14.25972118 13.7676128 -14.3125 17.4375 C-14.34988281 18.75621094 -14.38726562 20.07492187 -14.42578125 21.43359375 C-14.29931185 25.01910744 -14.29931185 25.01910744 -12.1953125 27.41015625 C-9.0801087 29.66618463 -6.8257101 30 -3 30 C-0.14192854 28.6695031 -0.14192854 28.6695031 2 26 C2.69073382 22.98204778 2.60829721 20.08154798 2.5 17 C2.50257813 16.19304687 2.50515625 15.38609375 2.5078125 14.5546875 C2.45063007 11.08943228 2.29553439 8.59938069 0.75 5.46484375 C-1.46341202 3.61209931 -2.63744557 3.49093614 -5.5 3.5625 C-6.2734375 3.56378906 -7.046875 3.56507813 -7.84375 3.56640625 C-10.49199194 4.09893316 -11.36486037 4.88129773 -13 7 Z " fill="#FBFBFB" transform="translate(302,242)"/>
<path d="M0 0 C2.70552388 2.19823815 4.44778333 3.89556667 6 7 C6.07065617 9.04055005 6.08421976 11.08334257 6.0625 13.125 C6.05347656 14.22070312 6.04445313 15.31640625 6.03515625 16.4453125 C6.02355469 17.28835938 6.01195312 18.13140625 6 19 C2.28720531 20.23759823 -1.31306346 20.35608897 -5.1875 20.5625 C-5.93708984 20.60568359 -6.68667969 20.64886719 -7.45898438 20.69335938 C-9.30578375 20.79922685 -11.15286834 20.9000976 -13 21 C-13 22.98 -13 24.96 -13 27 C-9.55560993 29.4397763 -6.85970892 28.97894692 -2.90625 28.359375 C-0.91231934 27.98347004 1.05130351 27.56836981 3 27 C3.33 28.32 3.66 29.64 4 31 C-1.42244774 33.76890948 -5.90542951 34.83471603 -12 34 C-15.15566077 32.72430735 -16.513454 31.91484353 -18.109375 28.9140625 C-19.28365445 25.07190254 -19.32985314 21.55719344 -19.3125 17.5625 C-19.32861328 16.82451172 -19.34472656 16.08652344 -19.36132812 15.32617188 C-19.36563383 10.48225634 -18.62414967 7.21396297 -16 3 C-11.10350197 -1.43745134 -6.18740079 -1.61740828 0 0 Z M-13 6 C-14.23267348 7.00836062 -14.23267348 7.00836062 -14.09765625 9.06640625 C-14.08605469 9.89011719 -14.07445312 10.71382812 -14.0625 11.5625 C-14.05347656 12.38878906 -14.04445313 13.21507812 -14.03515625 14.06640625 C-14.02355469 14.70449219 -14.01195312 15.34257812 -14 16 C-11.87506859 16.02693575 -9.75004088 16.04636628 -7.625 16.0625 C-5.84996094 16.07990234 -5.84996094 16.07990234 -4.0390625 16.09765625 C-1.08078479 16.21466593 -1.08078479 16.21466593 1 15 C1.45559572 9.80787535 1.45559572 9.80787535 -0.125 5.0625 C-5.11366182 2.23559163 -8.48201511 2.64378265 -13 6 Z " fill="#FBFBFB" transform="translate(331,242)"/>
<path d="M0 0 C3.33992552 3.65304354 3.11981125 7.12335499 3.0625 11.9375 C3.05347656 12.92234375 3.04445312 13.9071875 3.03515625 14.921875 C3.02355469 15.66953125 3.01195312 16.4171875 3 17.1875 C-0.71279469 18.42509823 -4.31306346 18.54358897 -8.1875 18.75 C-8.93708984 18.79318359 -9.68667969 18.83636719 -10.45898438 18.88085938 C-12.30578375 18.98672685 -14.15286834 19.0875976 -16 19.1875 C-15.67 21.4975 -15.34 23.8075 -15 26.1875 C-9.3067505 27.37359365 -5.57432514 26.85001802 0 25.1875 C0.33 26.5075 0.66 27.8275 1 29.1875 C-4.34858007 31.86179003 -8.00709506 32.76745854 -14 32.1875 C-17.58552881 30.55062815 -18.79315055 29.49777417 -21 26.1875 C-21.45978727 22.57797673 -21.37032084 18.9482038 -21.375 15.3125 C-21.39949219 14.31863281 -21.42398438 13.32476562 -21.44921875 12.30078125 C-21.47863432 4.97630521 -21.47863432 4.97630521 -19.11328125 1.078125 C-13.40979968 -4.02443522 -6.41857919 -3.87789159 0 0 Z M-16 4.1875 C-17.14352916 6.47455831 -17.10334439 7.78014762 -17.0625 10.3125 C-17.041875 11.59125 -17.02125 12.87 -17 14.1875 C-14.87506859 14.21443575 -12.75004088 14.23386628 -10.625 14.25 C-8.84996094 14.26740234 -8.84996094 14.26740234 -7.0390625 14.28515625 C-4.08078479 14.40216593 -4.08078479 14.40216593 -2 13.1875 C-1.54440428 7.99537535 -1.54440428 7.99537535 -3.125 3.25 C-8.06988625 0.44789779 -11.55199751 0.75618379 -16 4.1875 Z " fill="#FAFBFB" transform="translate(178,243.8125)"/>
<path d="M0 0 C3.24044458 2.56535196 4.69560167 4.086805 6 8 C6.0685495 9.89470816 6.08480372 11.7916834 6.0625 13.6875 C6.05347656 14.68136719 6.04445313 15.67523438 6.03515625 16.69921875 C6.02355469 17.45847656 6.01195313 18.21773438 6 19 C2.28720531 20.23759823 -1.31306346 20.35608897 -5.1875 20.5625 C-5.93708984 20.60568359 -6.68667969 20.64886719 -7.45898438 20.69335938 C-9.30578375 20.79922685 -11.15286834 20.9000976 -13 21 C-12.67 23.31 -12.34 25.62 -12 28 C-6.20858017 29.01603857 -2.5415502 28.96263236 3 27 C3.33 28.32 3.66 29.64 4 31 C-1.36809309 33.74115392 -5.95715488 34.86007223 -12 34 C-15.27852908 32.72800238 -15.96158559 32.05762161 -18 29 C-18.46241172 25.22376714 -18.37032982 21.42652457 -18.375 17.625 C-18.39949219 16.5834375 -18.42398438 15.541875 -18.44921875 14.46875 C-18.47865093 6.79676056 -18.47865093 6.79676056 -16.11328125 2.859375 C-11.18064536 -1.48061517 -6.19566427 -1.76217263 0 0 Z M-13 6 C-14.14352916 8.28705831 -14.10334439 9.59264762 -14.0625 12.125 C-14.041875 13.40375 -14.02125 14.6825 -14 16 C-11.87506859 16.02693575 -9.75004088 16.04636628 -7.625 16.0625 C-5.84996094 16.07990234 -5.84996094 16.07990234 -4.0390625 16.09765625 C-1.08078479 16.21466593 -1.08078479 16.21466593 1 15 C1.05399736 13.54207116 1.09279177 12.08357288 1.125 10.625 C1.15980469 9.40683594 1.15980469 9.40683594 1.1953125 8.1640625 C1.21370051 5.78657757 1.21370051 5.78657757 -1 4 C-6.10218479 2.74852071 -8.82409717 2.68384187 -13 6 Z " fill="#FAFBFB" transform="translate(64,242)"/>
<path d="M0 0 C3.24044458 2.56535196 4.69560167 4.086805 6 8 C6.0685495 9.89470816 6.08480372 11.7916834 6.0625 13.6875 C6.05347656 14.68136719 6.04445312 15.67523438 6.03515625 16.69921875 C6.02355469 17.45847656 6.01195312 18.21773438 6 19 C3.40742331 19.86419223 1.65962293 20.17580932 -1.01171875 20.31640625 C-1.76904297 20.35830078 -2.52636719 20.40019531 -3.30664062 20.44335938 C-4.09232422 20.48267578 -4.87800781 20.52199219 -5.6875 20.5625 C-6.48478516 20.60568359 -7.28207031 20.64886719 -8.10351562 20.69335938 C-10.06881447 20.79927368 -12.03438496 20.90012551 -14 21 C-13.34 23.31 -12.68 25.62 -12 28 C-6.20858017 29.01603857 -2.5415502 28.96263236 3 27 C3.33 28.32 3.66 29.64 4 31 C-1.34858007 33.67429003 -5.00709506 34.57995854 -11 34 C-13.91927604 32.6038245 -15.72202996 31.27797004 -18 29 C-18.48230766 25.249754 -18.37039583 21.46522433 -18.375 17.6875 C-18.39949219 16.64142578 -18.42398438 15.59535156 -18.44921875 14.51757812 C-18.47870217 6.79783694 -18.47870217 6.79783694 -16.11328125 2.85546875 C-11.17710284 -1.47851414 -6.19563348 -1.76216387 0 0 Z M-13 6 C-14.14352916 8.28705831 -14.10334439 9.59264762 -14.0625 12.125 C-14.041875 13.40375 -14.02125 14.6825 -14 16 C-11.87506859 16.02693575 -9.75004088 16.04636628 -7.625 16.0625 C-5.84996094 16.07990234 -5.84996094 16.07990234 -4.0390625 16.09765625 C-1.08078479 16.21466593 -1.08078479 16.21466593 1 15 C1.45559572 9.80787535 1.45559572 9.80787535 -0.125 5.0625 C-5.06988625 2.26039779 -8.55199751 2.56868379 -13 6 Z " fill="#FBFBFB" transform="translate(226,242)"/>
<path d="M0 0 C3.75212276 2.01502889 5.63644095 3.45466142 8 7 C8.45694847 10.44285712 8.37031082 13.90501023 8.375 17.375 C8.39949219 18.32117188 8.42398437 19.26734375 8.44921875 20.2421875 C8.46779642 24.65128709 8.45705665 27.2543258 6.11328125 31.078125 C3.10872508 33.81054946 0.97444066 34.97122855 -3.14453125 35.03125 C-8.20533892 34.69554137 -11.4498298 33.87291295 -15 30 C-18.19162337 23.63922948 -18.08019286 15.47614165 -16.4296875 8.63671875 C-15.18883158 5.58682552 -13.64699172 2.98524379 -11 1 C-7.27599129 -0.24133624 -3.86824 -0.54111486 0 0 Z M-10 6 C-12.55305926 9.82958888 -12.33112701 13.00054728 -12.3125 17.4375 C-12.32861328 18.20126953 -12.34472656 18.96503906 -12.36132812 19.75195312 C-12.36429805 23.16439492 -12.30512575 25.42253813 -10.69140625 28.4765625 C-7.97041981 30.92733551 -5.58128652 30.93825368 -2 31 C0.94755732 29.65437601 2.54277272 28.91445456 4 26 C4.15112939 23.38139265 4.23133862 20.80709118 4.25 18.1875 C4.270625 17.47529297 4.29125 16.76308594 4.3125 16.02929688 C4.34599385 11.50344039 3.88304443 8.54628 1 5 C-3.26740886 3.60845363 -6.08068046 3.82260026 -10 6 Z " fill="#FCFCFC" transform="translate(269,241)"/>
<path d="M0 0 C1.65 0 3.3 0 5 0 C6.17908109 3.39165005 7.34103966 6.78892712 8.5 10.1875 C8.83386719 11.14720703 9.16773438 12.10691406 9.51171875 13.09570312 C9.82753906 14.02705078 10.14335937 14.95839844 10.46875 15.91796875 C10.76201172 16.77156982 11.05527344 17.6251709 11.35742188 18.50463867 C12.02681173 21.10411957 12.11719018 23.32764529 12 26 C12.66 26 13.32 26 14 26 C14.226875 24.865625 14.45375 23.73125 14.6875 22.5625 C16.36794419 14.93303806 18.75098412 7.4766902 21 0 C22.65 0 24.3 0 26 0 C23.81434518 11.40703661 19.9738741 22.1154659 16 33 C14.02 33 12.04 33 10 33 C8.70404934 29.00137532 7.41401867 25.00086418 6.125 21 C5.76019531 19.87464844 5.39539063 18.74929688 5.01953125 17.58984375 C3.14469523 11.76080813 1.38874858 5.9643097 0 0 Z " fill="#FBFCFC" transform="translate(181,242)"/>
<path d="M0 0 C-0.33 1.32 -0.66 2.64 -1 4 C-4.3 4.33 -7.6 4.66 -11 5 C-11.33 14.24 -11.66 23.48 -12 33 C-13.65 33 -15.3 33 -17 33 C-17 22.11 -17 11.22 -17 0 C-3.09090909 -1.54545455 -3.09090909 -1.54545455 0 0 Z " fill="#FAFAFA" transform="translate(359,242)"/>
<path d="M0 0 C1.32 0 2.64 0 4 0 C4 15.18 4 30.36 4 46 C2.68 46 1.36 46 0 46 C0 30.82 0 15.64 0 0 Z " fill="#FCFCFC" transform="translate(239,229)"/>
<path d="M0 0 C2.86801846 0.08864784 3.78417611 0.16414857 6.125 1.9375 C7.46661569 5.4257008 6.98928615 7.80025344 6.0625 11.375 C2.57125983 13.70249345 1.17027749 13.87799316 -2.9375 13.375 C-5.375 11.8125 -5.375 11.8125 -6.9375 9.375 C-6.73068708 3.37742524 -6.38544695 0.6081378 0 0 Z " fill="#ACACAC" transform="translate(94.9375,139.625)"/>
<path d="M0 0 C0 0.99 0 1.98 0 3 C-0.58265625 3.26554688 -1.1653125 3.53109375 -1.765625 3.8046875 C-4.06174228 5.03302996 -5.80356018 6.40314939 -7.75 8.125 C-8.36359375 8.66382813 -8.9771875 9.20265625 -9.609375 9.7578125 C-10.06828125 10.16773438 -10.5271875 10.57765625 -11 11 C-11 8 -11 8 -9.35546875 6.2109375 C-8.28232422 5.30214844 -8.28232422 5.30214844 -7.1875 4.375 C-6.47980469 3.76398438 -5.77210937 3.15296875 -5.04296875 2.5234375 C-3 1 -3 1 0 0 Z " fill="#B2B2B2" transform="translate(128,161)"/>
</svg>
