<?xml version="1.0" encoding="UTF-8"?>
<svg version="1.1" xmlns="http://www.w3.org/2000/svg" width="223" height="123">
<path d="M0 0 C0.23233643 7.57095387 0.40969518 15.1415359 0.51812172 22.71524906 C0.57018326 26.23292023 0.64069579 29.7481428 0.75439453 33.2644043 C0.88448453 37.31321772 0.93246269 41.35948671 0.9765625 45.41015625 C1.02817535 46.66458023 1.07978821 47.91900421 1.13296509 49.21144104 C1.13844217 57.77317479 1.13844217 57.77317479 -2.12661743 61.29171753 C-4.67917546 63.10060227 -7.22115258 64.56904601 -10 66 C-11.58316454 66.9878542 -13.159947 67.98610564 -14.7265625 69 C-16.35766012 70.0027947 -17.99054276 71.00269053 -19.625 72 C-21.46905745 73.13361461 -23.31279462 74.26775034 -25.15625 75.40234375 C-26.58710938 76.28188721 -26.58710938 76.28188721 -28.046875 77.17919922 C-33.08593271 80.28611824 -38.10581955 83.4236034 -43.125 86.5625 C-44.13256348 87.19244873 -45.14012695 87.82239746 -46.17822266 88.47143555 C-52.46174383 92.40333951 -58.73509908 96.35100421 -65 100.3125 C-70.91129674 104.05025072 -76.82450916 107.78477827 -82.75 111.5 C-83.38164063 111.89743408 -84.01328125 112.29486816 -84.6640625 112.7043457 C-85.26476562 113.08034912 -85.86546875 113.45635254 -86.484375 113.84375 C-86.99709961 114.16537109 -87.50982422 114.48699219 -88.03808594 114.81835938 C-90.99497151 116.59926109 -93.99942226 118.29380665 -97 120 C-97.44301227 112.38710465 -97.77912799 104.77555833 -97.98443127 97.15266037 C-98.0830789 93.61045015 -98.21629547 90.07712618 -98.43334961 86.54003906 C-99.79236169 63.800243 -99.79236169 63.800243 -95.23291016 57.59509277 C-90.7990235 53.61419088 -85.75798182 51.18183978 -80.27322388 48.95300293 C-77.43861886 47.76465236 -74.98081125 46.21274041 -72.4453125 44.484375 C-65.88093692 40.3287515 -59.31676666 36.17669744 -52.6875 32.125 C-46.91343698 28.59030743 -41.20595333 24.95595345 -35.5 21.3125 C-27.78154387 16.38592545 -20.0354615 11.50755313 -12.25 6.6875 C-11.35087891 6.1303833 -10.45175781 5.5732666 -9.52539062 4.99926758 C-1.43081342 0 -1.43081342 0 0 0 Z " fill="#FEFEFE" transform="translate(160,2)"/>
<path d="M0 0 C19.8 0 39.6 0 60 0 C60 19.8 60 39.6 60 60 C40.2 60 20.4 60 0 60 C0 40.2 0 20.4 0 0 Z " fill="#FEFEFE" transform="translate(0,63)"/>
<path d="M0 0 C19.8 0 39.6 0 60 0 C60 19.8 60 39.6 60 60 C40.2 60 20.4 60 0 60 C0 40.2 0 20.4 0 0 Z " fill="#FEFEFE" transform="translate(163,0)"/>
<path d="M0 0 C2.71206401 0.06165997 5.42432068 0.10622478 8.13671875 0.15039062 C14.71857442 0.27041502 21.29626193 0.45347203 27.875 0.6875 C25.04427568 3.00138373 22.25450233 5.18360904 19.1171875 7.0625 C18.41795166 7.48474854 17.71871582 7.90699707 16.99829102 8.34204102 C16.25635498 8.78604248 15.51441895 9.23004395 14.75 9.6875 C7.9351016 13.80700103 1.16642315 17.99141768 -5.5625 22.25 C-6.77800537 23.01860352 -6.77800537 23.01860352 -8.01806641 23.80273438 C-11.07314325 25.73828935 -14.11560298 27.68123532 -17.125 29.6875 C-19.64970398 29.92800903 -19.64970398 29.92800903 -22.69799805 29.91455078 C-23.83895432 29.91439972 -24.97991058 29.91424866 -26.15544128 29.91409302 C-27.38676285 29.90377045 -28.61808441 29.89344788 -29.88671875 29.8828125 C-31.77811333 29.87856766 -31.77811333 29.87856766 -33.7077179 29.87423706 C-37.05660422 29.86493125 -40.40521791 29.84696703 -43.75402832 29.8248291 C-47.17258347 29.80435386 -50.5911668 29.79523176 -54.00976562 29.78515625 C-60.71491919 29.7630818 -67.41994385 29.72959362 -74.125 29.6875 C-71.15552013 26.59240209 -68.3434932 23.96768458 -64.67578125 21.7421875 C-63.82564453 21.22140625 -62.97550781 20.700625 -62.09960938 20.1640625 C-61.22111328 19.63554688 -60.34261719 19.10703125 -59.4375 18.5625 C-58.60927734 18.0571875 -57.78105469 17.551875 -56.92773438 17.03125 C-55.09070029 15.91127383 -53.24049189 14.81275158 -51.38085938 13.73071289 C-48.91059205 12.18049789 -46.73799933 10.62616795 -44.46289062 8.82983398 C-30.58126081 -1.58955009 -16.75942723 -0.59833105 0 0 Z " fill="#FEFEFE" transform="translate(191.125,62.3125)"/>
<path d="M0 0 C2.67309274 0.05601926 5.34612843 0.09586102 8.01953125 0.13671875 C14.51504427 0.2459782 21.00708623 0.41252041 27.5 0.625 C27.5 1.285 27.5 1.945 27.5 2.625 C25.25521015 4.11243835 23.02040368 5.47617924 20.6875 6.8125 C19.29748279 7.6264196 17.90816377 8.44153272 16.51953125 9.2578125 C15.83197754 9.66032227 15.14442383 10.06283203 14.43603516 10.47753906 C11.87964065 11.99267831 9.374454 13.58044365 6.875 15.1875 C1.7101574 18.5066481 -3.51316886 21.72199874 -8.75 24.92578125 C-10.68879592 26.12375884 -12.60371376 27.36080918 -14.5 28.625 C-17.06266785 28.86550903 -17.06266785 28.86550903 -20.16479492 28.85205078 C-21.32577194 28.85189972 -22.48674896 28.85174866 -23.6829071 28.85159302 C-24.93610245 28.84127045 -26.18929779 28.83094788 -27.48046875 28.8203125 C-28.76359451 28.8174826 -30.04672028 28.81465271 -31.36872864 28.81173706 C-34.77676202 28.80410797 -38.18462441 28.78446587 -41.59259033 28.7623291 C-45.07146898 28.74185497 -48.55037532 28.732732 -52.02929688 28.72265625 C-58.85293474 28.70121918 -65.67645916 28.66709205 -72.5 28.625 C-71.26875765 26.16251531 -70.4277055 25.92469607 -68 24.6875 C-62.6386853 21.7986775 -57.58226401 18.50303099 -52.49609375 15.16235352 C-51.06076144 14.22231436 -49.61183011 13.30288524 -48.15380859 12.3984375 C-46.0947808 11.02246897 -44.29912576 9.63773783 -42.41259766 8.0546875 C-29.59007279 -2.04473119 -15.62157141 -0.51303959 0 0 Z " fill="#FEFEFE" transform="translate(77.5,31.375)"/>
</svg>
